<svg width="36" height="36" viewBox="0 0 36 36" fill="none" xmlns="http://www.w3.org/2000/svg">
<path d="M32.5695 14.0217H21.2954V2.7476C21.2954 1.36417 20.1735 0.242249 18.7901 0.242249H16.2848C14.9013 0.242249 13.7794 1.36417 13.7794 2.7476V14.0217H2.50535C1.12193 14.0217 0 15.1436 0 16.527V19.0323C0 20.4158 1.12193 21.5377 2.50535 21.5377H13.7794V32.8118C13.7794 34.1952 14.9013 35.3171 16.2848 35.3171H18.7901C20.1735 35.3171 21.2954 34.1952 21.2954 32.8118V21.5377H32.5695C33.9529 21.5377 35.0749 20.4158 35.0749 19.0323V16.527C35.0749 15.1436 33.9529 14.0217 32.5695 14.0217Z" fill="#FFFFFF"/>
</svg>
