<svg width="40" height="41" viewBox="0 0 40 41" fill="none" xmlns="http://www.w3.org/2000/svg">
<path d="M30.4989 32.5679L31.8016 31.2738C37.829 31.4707 37.9217 31.2594 38.1866 30.6398L39.8425 26.6085L39.9656 26.2264L39.8309 25.892C39.76 25.7154 39.5414 25.1885 35.7779 21.6002V19.7126C40.1204 15.5293 40.0278 15.3151 39.7803 14.7028L38.1316 10.6295C37.884 10.0187 37.79 9.77986 31.806 9.94343L30.5032 8.59725C30.6377 6.61432 30.5693 4.62284 30.2991 2.6538L30.1312 2.27311L25.8263 0.391356C25.1923 0.101856 24.9694 -0.00236422 20.9048 4.4241L19.0781 4.3966C14.8934 -0.0703968 14.6951 0.0106632 14.0683 0.263976L10.0659 1.88228C9.43917 2.1356 9.2177 2.22534 9.46088 8.30485L8.16826 9.59313C2.14375 9.39627 2.05111 9.6105 1.78911 10.2271L0.130275 14.2599L0 14.6464L0.136065 14.9822C0.206993 15.1559 0.416881 15.677 4.18907 19.2697V21.1514C-0.153435 25.3347 -0.0593476 25.549 0.189623 26.1627L1.83688 30.2403C2.08875 30.8642 2.17849 31.0857 8.16102 30.9293L9.46377 32.2827C9.32874 34.2626 9.39518 36.2511 9.66208 38.2175L9.82999 38.6011L14.1624 40.4944C14.792 40.7579 15.0106 40.852 19.0636 36.4414L20.8904 36.4646C25.0809 40.9374 25.2951 40.8505 25.9074 40.603L29.9011 38.989C30.5322 38.7386 30.7522 38.6503 30.4989 32.5679ZM13.3344 23.1244C12.8293 21.8043 12.7253 20.3645 13.0355 18.9856C13.3456 17.6067 14.0561 16.35 15.0778 15.3734C16.0995 14.3968 17.3869 13.7436 18.7784 13.4959C20.1699 13.2482 21.6035 13.417 22.8995 13.9811C24.1954 14.5452 25.2959 15.4794 26.0629 16.6666C26.8298 17.8538 27.229 19.2411 27.2105 20.6544C27.1919 22.0676 26.7564 23.4439 25.9586 24.6106C25.1607 25.7772 24.0361 26.6823 22.7258 27.2121C20.938 27.9112 18.9461 27.8736 17.186 27.1075C15.4259 26.3414 14.041 24.9092 13.3344 23.1244Z" fill="#FFFFFF"/>
</svg>
