<svg width="40" height="40" viewBox="0 0 40 40" fill="none" xmlns="http://www.w3.org/2000/svg">
<path d="M19.9828 0C8.96688 0 0 8.96688 0 19.9828C0 30.9987 8.96688 39.9656 19.9828 39.9656C30.9987 39.9656 39.9656 30.9987 39.9656 19.9828C39.9656 8.96688 30.9987 0 19.9828 0ZM19.9828 4.99569C28.3057 4.99569 34.9699 11.6599 34.9699 19.9828C34.9699 28.3057 28.3057 34.9699 19.9828 34.9699C11.6599 34.9699 4.99569 28.3057 4.99569 19.9828C4.99569 11.6599 11.6599 4.99569 19.9828 4.99569ZM19.9828 9.67916C18.4314 9.67916 17.1727 10.9378 17.1727 12.4892C17.1727 14.0406 18.4314 15.2993 19.9828 15.2993C21.5342 15.2993 22.7929 14.0406 22.7929 12.4892C22.7929 10.9378 21.5342 9.67916 19.9828 9.67916ZM16.1775 17.4849C15.514 17.5142 14.9871 18.0606 14.9871 18.7339C14.9871 19.4266 15.5432 19.9828 16.236 19.9828H17.4849V27.4763H16.236C15.5432 27.4763 14.9871 28.0325 14.9871 28.7252C14.9871 29.418 15.5432 29.9742 16.236 29.9742H23.7295C24.4223 29.9742 24.9785 29.418 24.9785 28.7252C24.9785 28.0325 24.4223 27.4763 23.7295 27.4763H22.4806V17.4849H16.236C16.2165 17.4849 16.197 17.4849 16.1775 17.4849Z" fill="white"/>
</svg>
