<svg width="32" height="36" viewBox="0 0 32 36" fill="none" xmlns="http://www.w3.org/2000/svg">
<path d="M27.5588 30.7541V3.82163C27.5588 3.41037 27.4778 3.00313 27.3204 2.62318C27.163 2.24323 26.9324 1.89799 26.6416 1.60719C26.3508 1.31639 26.0055 1.08571 25.6256 0.928327C25.2456 0.770945 24.8384 0.689941 24.4271 0.689941H3.13168C2.30111 0.689941 1.50455 1.01989 0.917249 1.60719C0.329944 2.19449 0 2.99105 0 3.82163V31.3804C0 32.5432 0.461922 33.6584 1.28415 34.4807C2.10637 35.3029 3.22155 35.7648 4.38436 35.7648H31.2268C31.2387 35.7649 31.2504 35.7626 31.2614 35.7582C31.2723 35.7537 31.2823 35.747 31.2907 35.7387C31.2991 35.7303 31.3057 35.7203 31.3102 35.7093C31.3147 35.6984 31.3169 35.6866 31.3168 35.6748C31.3168 35.6551 31.3102 35.636 31.2982 35.6204C31.2862 35.6048 31.2693 35.5937 31.2503 35.5886C30.1906 35.298 29.2556 34.6676 28.5888 33.7943C27.922 32.9209 27.5601 31.8529 27.5588 30.7541ZM5.01069 8.20598C5.01069 7.87375 5.14267 7.55513 5.37759 7.32021C5.61251 7.08529 5.93114 6.95331 6.26337 6.95331H11.2741C11.6063 6.95331 11.9249 7.08529 12.1598 7.32021C12.3948 7.55513 12.5267 7.87375 12.5267 8.20598V13.2167C12.5267 13.5489 12.3948 13.8675 12.1598 14.1025C11.9249 14.3374 11.6063 14.4693 11.2741 14.4693H6.26337C5.93114 14.4693 5.61251 14.3374 5.37759 14.1025C5.14267 13.8675 5.01069 13.5489 5.01069 13.2167V8.20598ZM21.2954 29.5014H6.2986C5.6245 29.5014 5.04592 28.9831 5.01226 28.309C5.0041 28.1397 5.03041 27.9704 5.0896 27.8115C5.14879 27.6526 5.23963 27.5074 5.3566 27.3846C5.47358 27.2618 5.61427 27.1641 5.77013 27.0973C5.926 27.0305 6.0938 26.9961 6.26337 26.9961H21.2602C21.9343 26.9961 22.5129 27.5144 22.5466 28.1885C22.5547 28.3578 22.5284 28.5271 22.4692 28.686C22.41 28.8449 22.3192 28.9902 22.2022 29.1129C22.0852 29.2357 21.9445 29.3334 21.7887 29.4002C21.6328 29.467 21.465 29.5014 21.2954 29.5014ZM21.2954 24.4907H6.2986C5.6245 24.4907 5.04592 23.9724 5.01226 23.2983C5.0041 23.129 5.03041 22.9597 5.0896 22.8008C5.14879 22.6419 5.23963 22.4967 5.3566 22.3739C5.47358 22.2511 5.61427 22.1534 5.77013 22.0866C5.926 22.0198 6.0938 21.9854 6.26337 21.9854H21.2602C21.9343 21.9854 22.5129 22.5037 22.5466 23.1778C22.5547 23.3472 22.5284 23.5164 22.4692 23.6753C22.41 23.8342 22.3192 23.9795 22.2022 24.1022C22.0852 24.225 21.9445 24.3227 21.7887 24.3895C21.6328 24.4563 21.465 24.4907 21.2954 24.4907ZM21.2954 19.48H6.2986C5.6245 19.48 5.04592 18.9618 5.01226 18.2877C5.0041 18.1183 5.03041 17.949 5.0896 17.7901C5.14879 17.6312 5.23963 17.486 5.3566 17.3632C5.47358 17.2405 5.61427 17.1427 5.77013 17.0759C5.926 17.0092 6.0938 16.9747 6.26337 16.9747H21.2602C21.9343 16.9747 22.5129 17.493 22.5466 18.1671C22.5547 18.3365 22.5284 18.5057 22.4692 18.6646C22.41 18.8235 22.3192 18.9688 22.2022 19.0915C22.0852 19.2143 21.9445 19.312 21.7887 19.3788C21.6328 19.4456 21.465 19.48 21.2954 19.48ZM21.2954 14.4693H16.32C15.6459 14.4693 15.0673 13.9511 15.0336 13.277C15.0255 13.1076 15.0518 12.9383 15.111 12.7794C15.1702 12.6205 15.261 12.4753 15.378 12.3525C15.495 12.2298 15.6357 12.132 15.7915 12.0652C15.9474 11.9985 16.1152 11.964 16.2848 11.964H21.2602C21.9343 11.964 22.5129 12.4823 22.5466 13.1564C22.5547 13.3258 22.5284 13.495 22.4692 13.6539C22.41 13.8128 22.3192 13.9581 22.2022 14.0808C22.0852 14.2036 21.9445 14.3013 21.7887 14.3681C21.6328 14.4349 21.465 14.4693 21.2954 14.4693ZM21.2954 9.45866H16.32C15.6459 9.45866 15.0673 8.94036 15.0336 8.26627C15.0255 8.09689 15.0518 7.92763 15.111 7.76872C15.1702 7.60982 15.261 7.46459 15.378 7.34183C15.495 7.21907 15.6357 7.12133 15.7915 7.05455C15.9474 6.98777 16.1152 6.95332 16.2848 6.95331H21.2602C21.9343 6.95331 22.5129 7.4716 22.5466 8.1457C22.5547 8.31507 22.5284 8.48434 22.4692 8.64324C22.41 8.80215 22.3192 8.94738 22.2022 9.07014C22.0852 9.1929 21.9445 9.29063 21.7887 9.35742C21.6328 9.4242 21.465 9.45864 21.2954 9.45866Z" fill="#FFFFFF"/>
</svg>
