<svg width="40" height="40" viewBox="0 0 40 40" fill="none" xmlns="http://www.w3.org/2000/svg">
<path d="M39.422 34.5587L31.6391 26.7758C31.2878 26.4245 30.8116 26.2293 30.312 26.2293H29.0396C31.1941 23.4737 32.4744 20.0077 32.4744 16.2372C32.4744 7.2677 25.2067 0 16.2372 0C7.26771 0 0 7.2677 0 16.2372C0 25.2067 7.26771 32.4744 16.2372 32.4744C20.0077 32.4744 23.4737 31.1941 26.2293 29.0396V30.312C26.2293 30.8116 26.4245 31.2878 26.7758 31.6391L34.5587 39.422C35.2925 40.1558 36.479 40.1558 37.205 39.422L39.4142 37.2128C40.148 36.479 40.148 35.2925 39.422 34.5587ZM16.2372 26.2293C10.7181 26.2293 6.24507 21.7641 6.24507 16.2372C6.24507 10.7181 10.7103 6.24507 16.2372 6.24507C21.7563 6.24507 26.2293 10.7103 26.2293 16.2372C26.2293 21.7563 21.7641 26.2293 16.2372 26.2293Z" fill="white"/>
</svg>
